<?xml version="1.0" encoding="utf-8"?>
<!-- Generator: Adobe Illustrator 21.1.0, SVG Export Plug-In . SVG Version: 6.00 Build 0)  -->
<svg version="1.1" id="Layer_1" xmlns="http://www.w3.org/2000/svg" xmlns:xlink="http://www.w3.org/1999/xlink" x="0px" y="0px"
	 viewBox="0 0 60 60" style="enable-background:new 0 0 60 60;" xml:space="preserve">
<style type="text/css">
	.st0{fill:none;}
	.st1{fill:#489CD6;}
</style>
<title>ic_location</title>
<path class="st0" d="M0,0h60v60H0V0z"/>
<path class="st1" d="M30,5c-9.7,0-17.5,7.8-17.5,17.5c0,0,0,0,0,0C12.5,35.6,30,55,30,55s17.5-19.4,17.5-32.5C47.5,12.8,39.7,5,30,5
	C30,5,30,5,30,5z M30,28.8c-3.5,0-6.3-2.8-6.3-6.3s2.8-6.3,6.3-6.3s6.3,2.8,6.3,6.3S33.5,28.8,30,28.8z"/>
</svg>
