<svg id="Layer_1" data-name="Layer 1" xmlns="http://www.w3.org/2000/svg" width="36" height="36" viewBox="0 0 36 36"><defs><style>.cls-1{fill:#fff;}.cls-2{fill:none;}</style></defs><title>ic_cart</title><path class="cls-1" d="M10.5,27a3,3,0,1,0,3,3A3,3,0,0,0,10.5,27ZM1.5,3V6h3L9.9,17.39l-2,3.67A2.9,2.9,0,0,0,7.5,22.5a3,3,0,0,0,3,3h18v-3H11.13a.37.37,0,0,1-.37-.37l0-.18,1.35-2.45H23.33A3,3,0,0,0,25.95,18l5.37-9.73a1.47,1.47,0,0,0,.18-.72A1.5,1.5,0,0,0,30,6H7.82L6.4,3Zm24,24a3,3,0,1,0,3,3A3,3,0,0,0,25.5,27Z"/><path class="cls-2" d="M0,0H36V36H0Z"/></svg>