<svg id="Layer_1" data-name="Layer 1" xmlns="http://www.w3.org/2000/svg" width="36" height="36" viewBox="0 0 36 36"><defs><style>.cls-1{fill:#489cd6;}.cls-2{fill:none;}.cls-3{font-size:12px;font-family:MyriadPro-Regular, Myriad Pro;}.cls-4{letter-spacing:-0.01em;}</style></defs><title>ic_account</title><path class="cls-1" d="M18,3A15,15,0,1,0,33,18,15,15,0,0,0,18,3Zm0,4.5A4.5,4.5,0,1,1,13.5,12,4.49,4.49,0,0,1,18,7.5Zm0,21.3A10.8,10.8,0,0,1,9,24c0-3,6-4.62,9-4.62S27,21,27,24A10.8,10.8,0,0,1,18,28.8Z"/><path class="cls-2" d="M0,0H36V36H0Z"/><text class="cls-3" transform="translate(-0.01 -2.33)">36<tspan class="cls-4" x="12.31" y="0">p</tspan><tspan x="18.97" y="0">x</tspan></text></svg>