<svg id="Layer_1" data-name="Layer 1" xmlns="http://www.w3.org/2000/svg" width="36" height="36" viewBox="0 0 36 36"><defs><style>.cls-1{fill:none;}.cls-2{fill:#489cd6;}</style></defs><title>ic_shop</title><path class="cls-1" d="M0,0H36V36H0Z"/><path class="cls-2" d="M18,20.18a7.27,7.27,0,0,1-7.27-7.27h2.91a4.36,4.36,0,0,0,8.73,0h2.91A7.27,7.27,0,0,1,18,20.18M18,5.63A4.36,4.36,0,0,1,22.36,10H13.64A4.36,4.36,0,0,1,18,5.63M28.18,10H25.27a7.27,7.27,0,0,0-14.55,0H7.82a2.9,2.9,0,0,0-2.91,2.91V30.37a2.91,2.91,0,0,0,2.91,2.91H28.18a2.91,2.91,0,0,0,2.91-2.91V12.91A2.91,2.91,0,0,0,28.18,10Z"/></svg>